<svg xmlns="http://www.w3.org/2000/svg" viewBox="0 0 600 760"><rect width="600" height="760" rx="2" fill="#FFFFFF"/><text x="300" y="18" text-anchor="middle" font-size="10" fill="#AEB6C2" font-family="Helvetica, Arial, sans-serif">View this email in your browser</text><rect x="254" y="30" width="92" height="26" rx="6" fill="#334155"/><text x="300" y="48" text-anchor="middle" font-size="12" font-weight="700" fill="#fff" font-family="Helvetica, Arial, sans-serif" letter-spacing="2">LOGO</text><text x="300" y="104" text-anchor="middle" font-size="30" font-weight="700" fill="#334155" font-family="Georgia, 'Times New Roman', serif">Still In The Market?</text><rect x="150" y="118" width="300" height="9" rx="4.5" fill="#E2E8F0"/><rect x="40" y="156" width="300" height="11" rx="5.5" fill="#CBD5E1"/><rect x="40" y="176" width="250" height="11" rx="5.5" fill="#CBD5E1"/><rect x="40" y="196" width="280" height="11" rx="5.5" fill="#CBD5E1"/><rect x="375" y="168" width="130" height="42" rx="8" fill="#475569"/><text x="440" y="194" text-anchor="middle" font-size="13" font-weight="700" fill="#fff" font-family="Helvetica, Arial, sans-serif">Update my criteria</text><rect x="40" y="250" width="520" height="1" fill="#E5E7EB"/><rect x="40" y="278" width="150" height="86" rx="8" fill="#E2E8F0"/><circle cx="86" cy="312" r="9" fill="#CBD5E1"/><polygon points="67,346 110,322 138,338 165,322 178,346" fill="#CBD5E1"/><rect x="210" y="290" width="300" height="12" rx="6" fill="#334155"/><rect x="210" y="314" width="330" height="11" rx="5.5" fill="#CBD5E1"/><rect x="210" y="332" width="300" height="11" rx="5.5" fill="#CBD5E1"/><rect x="40" y="560" width="520" height="1" fill="#E5E7EB"/><circle cx="276" cy="598" r="14" fill="#64748B"/><circle cx="324" cy="598" r="14" fill="#64748B"/><circle cx="372" cy="598" r="14" fill="#64748B" opacity="0.8"/><rect x="210" y="700" width="180" height="9" rx="4.5" fill="#D7DCE3"/><rect x="170" y="718" width="260" height="8" rx="4" fill="#D7DCE3"/><rect x="230" y="734" width="140" height="8" rx="4" fill="#D7DCE3"/></svg>
