<svg xmlns="http://www.w3.org/2000/svg" viewBox="0 0 600 760" font-family="Georgia, 'Times New Roman', serif">
  <rect width="600" height="760" fill="#F9F7F1"/>
  <rect x="250" y="28" width="100" height="22" rx="4" fill="#1E3A8A"/>
  <text x="300" y="94" text-anchor="middle" font-size="34" font-weight="700" fill="#1E3A8A">Welcome Aboard</text>
  <rect x="70" y="160" width="120" height="10" rx="5" fill="#1E3A8A"/>
  <rect x="70" y="182" width="460" height="11" rx="5" fill="#C9CDD3"/>
  <rect x="70" y="204" width="380" height="11" rx="5" fill="#C9CDD3"/>
  <rect x="70" y="268" width="120" height="10" rx="5" fill="#1E3A8A"/>
  <rect x="70" y="290" width="450" height="11" rx="5" fill="#C9CDD3"/>
  <rect x="70" y="312" width="360" height="11" rx="5" fill="#C9CDD3"/>
  <rect x="70" y="376" width="120" height="10" rx="5" fill="#1E3A8A"/>
  <rect x="70" y="398" width="445" height="11" rx="5" fill="#C9CDD3"/>
  <rect x="70" y="420" width="390" height="11" rx="5" fill="#C9CDD3"/>
  <rect x="194" y="488" width="212" height="48" rx="6" fill="#F97316"/>
  <text x="300" y="519" text-anchor="middle" font-size="16" font-weight="700" fill="#fff" font-family="Helvetica, Arial, sans-serif">Set your buy box</text>
  <rect x="40" y="590" width="520" height="1" fill="#E5E7EB"/>
  <circle cx="276" cy="626" r="14" fill="#1E3A8A"/>
  <circle cx="324" cy="626" r="14" fill="#1E3A8A"/>
  <rect x="120" y="694" width="360" height="9" rx="4" fill="#D9D5CC"/>
  <rect x="170" y="712" width="260" height="9" rx="4" fill="#D9D5CC"/>
</svg>
