<svg xmlns="http://www.w3.org/2000/svg" viewBox="0 0 600 760"><rect width="600" height="760" rx="2" fill="#FFFFFF"/><rect x="0" y="0" width="600" height="38" fill="#475569"/><text x="300" y="25" text-anchor="middle" font-size="14" font-weight="700" fill="#fff" font-family="Helvetica, Arial, sans-serif" letter-spacing="2">PRICE DROP</text><rect x="254" y="52" width="92" height="26" rx="6" fill="#334155"/><text x="300" y="70" text-anchor="middle" font-size="12" font-weight="700" fill="#fff" font-family="Helvetica, Arial, sans-serif" letter-spacing="2">LOGO</text><text x="300" y="128" text-anchor="middle" font-size="30" font-weight="700" fill="#334155" font-family="Georgia, 'Times New Roman', serif">Price Reduced</text><rect x="150" y="142" width="300" height="9" rx="4.5" fill="#E2E8F0"/><rect x="40" y="162" width="520" height="190" rx="8" fill="#E2E8F0"/><circle cx="227" cy="238" r="11" fill="#CBD5E1"/><polygon points="133,302 248,248 326,288 404,256 477,302" fill="#CBD5E1"/><rect x="40" y="376" width="520" height="11" rx="5.5" fill="#CBD5E1"/><rect x="40" y="396" width="300" height="11" rx="5.5" fill="#CBD5E1"/><rect x="195" y="430" width="210" height="46" rx="8" fill="#475569"/><text x="300" y="458" text-anchor="middle" font-size="15" font-weight="700" fill="#fff" font-family="Helvetica, Arial, sans-serif">See updated numbers</text><rect x="40" y="506" width="520" height="1" fill="#E5E7EB"/><circle cx="276" cy="544" r="14" fill="#64748B"/><circle cx="324" cy="544" r="14" fill="#64748B"/><circle cx="372" cy="544" r="14" fill="#64748B" opacity="0.8"/><rect x="210" y="700" width="180" height="9" rx="4.5" fill="#D7DCE3"/><rect x="170" y="718" width="260" height="8" rx="4" fill="#D7DCE3"/><rect x="230" y="734" width="140" height="8" rx="4" fill="#D7DCE3"/></svg>
