<svg xmlns="http://www.w3.org/2000/svg" viewBox="0 0 600 760" font-family="Georgia, 'Times New Roman', serif">
  <rect width="600" height="760" fill="#F9F7F1"/>
  <rect x="0" y="0" width="600" height="40" fill="#F97316"/>
  <text x="300" y="27" text-anchor="middle" font-size="18" font-weight="700" fill="#fff" font-family="Helvetica, Arial, sans-serif">PRICE DROP</text>
  <rect x="250" y="58" width="100" height="22" rx="4" fill="#1E3A8A"/>
  <text x="300" y="124" text-anchor="middle" font-size="32" font-weight="700" fill="#1E3A8A">Price Reduced</text>
  <rect x="40" y="150" width="520" height="240" rx="8" fill="#D8DEE9"/>
  <rect x="40" y="420" width="520" height="12" rx="6" fill="#C9CDD3"/>
  <rect x="40" y="446" width="320" height="10" rx="5" fill="#C9CDD3"/>
  <rect x="40" y="468" width="240" height="10" rx="5" fill="#C9CDD3"/>
  <rect x="196" y="506" width="208" height="46" rx="6" fill="#F97316"/>
  <text x="300" y="535" text-anchor="middle" font-size="16" font-weight="700" fill="#fff" font-family="Helvetica, Arial, sans-serif">See updated numbers</text>
  <rect x="40" y="590" width="520" height="1" fill="#E5E7EB"/>
  <circle cx="276" cy="626" r="14" fill="#1E3A8A"/>
  <circle cx="324" cy="626" r="14" fill="#1E3A8A"/>
  <rect x="120" y="694" width="360" height="9" rx="4" fill="#D9D5CC"/>
  <rect x="170" y="712" width="260" height="9" rx="4" fill="#D9D5CC"/>
</svg>
