<svg xmlns="http://www.w3.org/2000/svg" viewBox="0 0 600 760"><rect width="600" height="760" rx="2" fill="#FFFFFF"/><text x="300" y="18" text-anchor="middle" font-size="10" fill="#AEB6C2" font-family="Helvetica, Arial, sans-serif">View this email in your browser</text><rect x="254" y="30" width="92" height="26" rx="6" fill="#334155"/><text x="300" y="48" text-anchor="middle" font-size="12" font-weight="700" fill="#fff" font-family="Helvetica, Arial, sans-serif" letter-spacing="2">LOGO</text><text x="300" y="104" text-anchor="middle" font-size="30" font-weight="700" fill="#334155" font-family="Georgia, 'Times New Roman', serif">Property Walkthrough</text><rect x="150" y="118" width="300" height="9" rx="4.5" fill="#E2E8F0"/><rect x="40" y="140" width="520" height="180" rx="8" fill="#E2E8F0"/><circle cx="227" cy="212" r="11" fill="#CBD5E1"/><polygon points="133,268 248,216 326,254 404,224 477,268" fill="#CBD5E1"/><rect x="40" y="338" width="520" height="92" rx="8" fill="#334155"/><rect x="80" y="360" width="300" height="9" rx="4.5" fill="#fff" opacity="0.92"/><rect x="80" y="382" width="420" height="9" rx="4.5" fill="#fff" opacity="0.92"/><rect x="80" y="404" width="360" height="9" rx="4.5" fill="#fff" opacity="0.92"/><rect x="215" y="452" width="170" height="46" rx="8" fill="#475569"/><text x="300" y="480" text-anchor="middle" font-size="15" font-weight="700" fill="#fff" font-family="Helvetica, Arial, sans-serif">RSVP now</text><rect x="40" y="528" width="520" height="1" fill="#E5E7EB"/><circle cx="276" cy="566" r="14" fill="#64748B"/><circle cx="324" cy="566" r="14" fill="#64748B"/><circle cx="372" cy="566" r="14" fill="#64748B" opacity="0.8"/><rect x="210" y="700" width="180" height="9" rx="4.5" fill="#D7DCE3"/><rect x="170" y="718" width="260" height="8" rx="4" fill="#D7DCE3"/><rect x="230" y="734" width="140" height="8" rx="4" fill="#D7DCE3"/></svg>
