<svg xmlns="http://www.w3.org/2000/svg" viewBox="0 0 600 760" font-family="Georgia, 'Times New Roman', serif">
  <rect width="600" height="760" fill="#F9F7F1"/>
  <rect x="250" y="28" width="100" height="22" rx="4" fill="#1E3A8A"/>
  <text x="300" y="94" text-anchor="middle" font-size="30" font-weight="700" fill="#1E3A8A">Property Walkthrough</text>
  <rect x="40" y="120" width="520" height="220" rx="8" fill="#D8DEE9"/>
  <rect x="80" y="372" width="440" height="110" rx="8" fill="#1E3A8A"/>
  <rect x="110" y="400" width="300" height="10" rx="5" fill="#F9F7F1"/>
  <rect x="110" y="422" width="260" height="10" rx="5" fill="#F9F7F1"/>
  <rect x="110" y="444" width="340" height="10" rx="5" fill="#F9F7F1"/>
  <rect x="230" y="506" width="140" height="46" rx="6" fill="#F97316"/>
  <text x="300" y="535" text-anchor="middle" font-size="16" font-weight="700" fill="#fff" font-family="Helvetica, Arial, sans-serif">RSVP now</text>
  <rect x="40" y="590" width="520" height="1" fill="#E5E7EB"/>
  <circle cx="276" cy="626" r="14" fill="#1E3A8A"/>
  <circle cx="324" cy="626" r="14" fill="#1E3A8A"/>
  <rect x="120" y="694" width="360" height="9" rx="4" fill="#D9D5CC"/>
  <rect x="170" y="712" width="260" height="9" rx="4" fill="#D9D5CC"/>
</svg>
