<svg xmlns="http://www.w3.org/2000/svg" viewBox="0 0 600 760"><rect width="600" height="760" rx="2" fill="#FFFFFF"/><text x="300" y="18" text-anchor="middle" font-size="10" fill="#AEB6C2" font-family="Helvetica, Arial, sans-serif">View this email in your browser</text><rect x="254" y="30" width="92" height="26" rx="6" fill="#334155"/><text x="300" y="48" text-anchor="middle" font-size="12" font-weight="700" fill="#fff" font-family="Helvetica, Arial, sans-serif" letter-spacing="2">LOGO</text><text x="300" y="104" text-anchor="middle" font-size="30" font-weight="700" fill="#334155" font-family="Georgia, 'Times New Roman', serif">This Week's Deals</text><rect x="150" y="118" width="300" height="9" rx="4.5" fill="#E2E8F0"/><rect x="40" y="150" width="520" height="11" rx="5.5" fill="#CBD5E1"/><rect x="40" y="180" width="150" height="90" rx="8" fill="#E2E8F0"/><circle cx="86" cy="216" r="9" fill="#CBD5E1"/><polygon points="67,252 110,228 138,244 165,228 178,252" fill="#CBD5E1"/><rect x="210" y="192" width="300" height="12" rx="6" fill="#334155"/><rect x="210" y="216" width="330" height="11" rx="5.5" fill="#CBD5E1"/><rect x="210" y="234" width="300" height="11" rx="5.5" fill="#CBD5E1"/><rect x="210" y="254" width="86" height="16" rx="8" fill="#475569"/><rect x="40" y="290" width="520" height="1" fill="#E5E7EB"/><rect x="40" y="310" width="150" height="90" rx="8" fill="#E2E8F0"/><circle cx="86" cy="346" r="9" fill="#CBD5E1"/><polygon points="67,382 110,358 138,374 165,358 178,382" fill="#CBD5E1"/><rect x="210" y="322" width="300" height="12" rx="6" fill="#334155"/><rect x="210" y="346" width="330" height="11" rx="5.5" fill="#CBD5E1"/><rect x="210" y="364" width="300" height="11" rx="5.5" fill="#CBD5E1"/><rect x="210" y="384" width="86" height="16" rx="8" fill="#475569"/><rect x="40" y="420" width="520" height="1" fill="#E5E7EB"/><rect x="40" y="440" width="150" height="90" rx="8" fill="#E2E8F0"/><circle cx="86" cy="476" r="9" fill="#CBD5E1"/><polygon points="67,512 110,488 138,504 165,488 178,512" fill="#CBD5E1"/><rect x="210" y="452" width="300" height="12" rx="6" fill="#334155"/><rect x="210" y="476" width="330" height="11" rx="5.5" fill="#CBD5E1"/><rect x="210" y="494" width="300" height="11" rx="5.5" fill="#CBD5E1"/><rect x="210" y="514" width="86" height="16" rx="8" fill="#475569"/><rect x="40" y="560" width="520" height="1" fill="#E5E7EB"/><circle cx="276" cy="598" r="14" fill="#64748B"/><circle cx="324" cy="598" r="14" fill="#64748B"/><circle cx="372" cy="598" r="14" fill="#64748B" opacity="0.8"/><rect x="210" y="700" width="180" height="9" rx="4.5" fill="#D7DCE3"/><rect x="170" y="718" width="260" height="8" rx="4" fill="#D7DCE3"/><rect x="230" y="734" width="140" height="8" rx="4" fill="#D7DCE3"/></svg>
