<svg xmlns="http://www.w3.org/2000/svg" viewBox="0 0 600 760" font-family="Georgia, 'Times New Roman', serif">
  <rect width="600" height="760" fill="#F9F7F1"/>
  <rect x="250" y="28" width="100" height="22" rx="4" fill="#1E3A8A"/>
  <text x="300" y="94" text-anchor="middle" font-size="32" font-weight="700" fill="#1E3A8A">This Week's Deals</text>
  <rect x="40" y="130" width="520" height="120" rx="8" fill="#F3F4F6"/>
  <rect x="60" y="150" width="150" height="80" rx="6" fill="#D8DEE9"/>
  <rect x="230" y="164" width="210" height="10" rx="5" fill="#C9CDD3"/>
  <rect x="230" y="186" width="170" height="10" rx="5" fill="#C9CDD3"/>
  <rect x="450" y="170" width="90" height="36" rx="6" fill="#F97316"/>
  <rect x="40" y="270" width="520" height="120" rx="8" fill="#F3F4F6"/>
  <rect x="60" y="290" width="150" height="80" rx="6" fill="#D8DEE9"/>
  <rect x="230" y="304" width="220" height="10" rx="5" fill="#C9CDD3"/>
  <rect x="230" y="326" width="160" height="10" rx="5" fill="#C9CDD3"/>
  <rect x="450" y="310" width="90" height="36" rx="6" fill="#F97316"/>
  <rect x="40" y="410" width="520" height="120" rx="8" fill="#F3F4F6"/>
  <rect x="60" y="430" width="150" height="80" rx="6" fill="#D8DEE9"/>
  <rect x="230" y="444" width="205" height="10" rx="5" fill="#C9CDD3"/>
  <rect x="230" y="466" width="175" height="10" rx="5" fill="#C9CDD3"/>
  <rect x="450" y="450" width="90" height="36" rx="6" fill="#F97316"/>
  <rect x="40" y="590" width="520" height="1" fill="#E5E7EB"/>
  <circle cx="276" cy="626" r="14" fill="#1E3A8A"/>
  <circle cx="324" cy="626" r="14" fill="#1E3A8A"/>
  <rect x="120" y="694" width="360" height="9" rx="4" fill="#D9D5CC"/>
  <rect x="170" y="712" width="260" height="9" rx="4" fill="#D9D5CC"/>
</svg>
